<svg version="1.1" id="Layer_1" xmlns="http://www.w3.org/2000/svg" xmlns:xlink="http://www.w3.org/1999/xlink" x="0px" y="0px"
	 width="100%" viewBox="0 0 128 128" enable-background="new 0 0 128 128" xml:space="preserve">
<path fill="#000000" opacity="1.000000" stroke="none" 
	d="
M1.000000,57.000000 
	C1.000000,38.000000 1.000000,19.500000 1.000000,1.000000 
	C43.666668,1.000000 86.333336,1.000000 129.000000,1.000000 
	C129.000000,43.666668 129.000000,86.333336 129.000000,129.000000 
	C86.333336,129.000000 43.666668,129.000000 1.000000,129.000000 
	C1.000000,105.166664 1.000000,81.333336 1.000000,57.000000 
M99.507774,91.817703 
	C99.800102,91.647842 99.929977,91.394615 100.510147,90.812950 
	C101.365059,89.823929 102.219971,88.834908 103.491425,87.793053 
	C103.775063,87.635635 103.886902,87.397453 104.067192,87.061012 
	C104.067192,87.061012 104.077484,86.820343 104.469872,86.790329 
	C104.755844,86.650703 104.848282,86.429970 105.062561,86.039299 
	C105.062561,86.039299 105.134552,85.719666 105.488777,85.741257 
	C105.751244,85.608101 105.821632,85.407417 105.985397,85.140778 
	C105.985397,85.140778 106.046272,84.861893 106.630539,84.781410 
	C106.719788,84.213737 106.809036,83.646072 107.489761,82.774994 
	C108.332321,81.523827 109.174873,80.272652 110.519257,78.896690 
	C110.602676,78.602821 110.686089,78.308960 111.063301,77.374405 
	C111.718742,75.945084 112.374176,74.515762 113.537262,72.921799 
	C113.717964,72.627106 113.898666,72.332405 114.014496,72.002617 
	C114.014496,72.002617 114.039352,72.072075 114.569313,71.944893 
	C114.654137,71.634598 114.738953,71.324303 114.963158,70.361015 
	C115.001411,69.918251 115.039665,69.475487 115.677208,68.817307 
	C115.720856,68.209045 115.764511,67.600792 115.966377,66.350540 
	C116.013763,65.913475 116.061150,65.476418 116.849884,64.650894 
	C116.842125,62.107525 116.834358,59.564156 116.984192,56.269108 
	C116.596809,54.844784 116.209427,53.420456 115.924805,51.461147 
	C115.629005,51.270199 115.333206,51.079254 114.993690,50.234306 
	C114.606583,49.491055 114.219475,48.747799 113.823868,47.310596 
	C112.580902,45.529503 111.337944,43.748405 109.832603,41.306805 
	C105.812279,39.397861 106.507721,35.095253 104.988136,31.156952 
	C103.506416,29.787785 102.223549,27.615435 100.508003,27.190704 
	C93.663879,25.496252 92.933670,25.175653 93.083908,18.374496 
	C93.162247,14.827837 91.246124,13.206515 88.568619,12.305204 
	C86.157936,11.493716 83.506660,11.079346 80.956062,11.054766 
	C68.350235,10.933282 55.740070,10.842509 43.136314,11.044886 
	C31.309048,11.234795 31.308609,11.401005 28.058811,22.034033 
	C27.971518,22.319647 28.133366,22.681404 28.032364,23.660347 
	C28.087761,24.099461 28.143160,24.538574 28.042946,25.650255 
	C28.096029,26.104292 28.149113,26.558331 28.041775,27.935970 
	C27.677286,36.940094 27.312798,45.944221 26.331007,55.113892 
	C26.185377,55.710567 26.039749,56.307243 25.407581,57.097733 
	C25.241196,57.395088 25.074810,57.692444 24.202513,58.004196 
	C19.920279,60.930149 16.289434,64.292397 15.800838,70.750877 
	C13.675331,80.913231 13.956972,90.618362 21.055666,99.541801 
	C21.354902,99.723152 21.654139,99.904503 21.982792,100.010246 
	C21.982792,100.010246 21.910925,100.047874 22.078857,100.555977 
	C22.377396,100.730988 22.675932,100.905991 23.093735,101.561913 
	C23.285023,101.870865 23.562340,102.027588 24.073919,102.545265 
	C24.378275,102.631874 24.682632,102.718483 25.608170,103.068054 
	C26.708864,103.722321 27.809559,104.376595 29.076925,105.537964 
	C29.371279,105.719833 29.665634,105.901703 29.998535,106.016876 
	C29.998535,106.016876 29.927101,106.045708 30.132933,106.660339 
	C30.747623,106.701942 31.362314,106.743546 32.437302,106.959953 
	C32.437302,106.959953 32.925270,107.025681 33.086800,107.527069 
	C33.385944,107.609238 33.685093,107.691406 34.489075,107.946960 
	C34.665371,107.970963 34.841671,107.994965 35.402252,108.725746 
	C36.864025,108.901825 38.381531,108.883904 39.778580,109.285271 
	C49.308262,112.023125 58.634270,110.707672 68.499962,107.921135 
	C68.688194,107.852699 68.876427,107.784264 69.692299,107.874832 
	C70.416817,107.600807 71.141327,107.326782 72.499832,106.909897 
	C72.702110,106.832352 72.904381,106.754807 73.644669,106.832733 
	C74.067207,106.568504 74.489754,106.304283 75.525154,105.919266 
	C75.716988,105.838318 75.908821,105.757370 76.613022,105.816658 
	C77.006981,105.573112 77.400940,105.329567 78.424545,104.932091 
	C78.628372,104.860413 78.832199,104.788742 79.513550,104.859695 
	C79.840355,104.681213 79.998253,104.405861 80.566254,103.899902 
	C80.748161,103.821480 80.930061,103.743065 81.588142,103.818382 
	C81.949623,103.604225 82.311111,103.390068 83.435814,102.856216 
	C83.692039,102.754074 83.948257,102.651939 84.491158,102.720909 
	C84.751488,102.607010 84.817551,102.423325 85.454826,101.839760 
	C85.714317,101.740410 85.973816,101.641060 86.522926,101.702652 
	C86.767456,101.579567 86.833534,101.393227 87.422905,100.930641 
	C87.996544,100.483986 88.570183,100.037323 89.481148,99.718330 
	C89.744461,99.593842 89.831673,99.392899 90.467491,98.856705 
	C90.704445,98.758469 90.941406,98.660233 91.468567,98.726204 
	C91.468567,98.726204 91.721626,98.511932 91.721626,98.511932 
	C91.721626,98.511932 91.642479,98.189972 92.040215,98.015205 
	C92.040215,98.015205 92.228363,97.623634 92.550674,97.693504 
	C92.777901,97.556343 92.842903,97.364059 93.041595,97.077278 
	C93.041595,97.077278 93.109764,96.786629 93.528687,96.772430 
	C93.792809,96.606895 93.915504,96.368469 94.544914,95.878815 
	C94.747482,95.783028 94.950043,95.687233 95.458931,95.732849 
	C95.458931,95.732849 95.717110,95.518951 95.717110,95.518951 
	C95.717110,95.518951 95.649864,95.190529 96.029305,95.037453 
	C96.029305,95.037453 96.189659,94.661026 96.530937,94.721779 
	C96.775635,94.582527 96.844749,94.382393 97.050598,94.055275 
	C97.050598,94.055275 97.128525,93.745697 97.514748,93.754143 
	C97.774139,93.603973 97.871506,93.382439 98.064774,93.077187 
	C98.064774,93.077187 98.088203,92.820030 98.507149,92.785316 
	C98.782944,92.623810 98.898964,92.384689 99.045197,92.061806 
	C99.045197,92.061806 99.062325,91.872498 99.507774,91.817703 
z"/>
<path fill="#FDFDFE" opacity="1.000000" stroke="none" 
	d="
M113.029602,73.086433 
	C112.374176,74.515762 111.718742,75.945084 110.734695,77.815338 
	C110.186897,78.465797 110.057343,78.720871 110.017433,79.021484 
	C109.174873,80.272652 108.332321,81.523827 106.963852,83.060516 
	C106.307388,83.851326 106.176826,84.356613 106.046272,84.861893 
	C106.046272,84.861893 105.985397,85.140778 105.695427,85.170166 
	C105.215981,85.321129 105.125679,85.494499 105.134552,85.719666 
	C105.134552,85.719666 105.062561,86.039299 104.737717,86.131882 
	C104.206932,86.370026 104.095139,86.568649 104.077484,86.820343 
	C104.077484,86.820343 104.067192,87.061012 103.766144,87.132980 
	C103.236557,87.358589 103.106483,87.572235 103.074875,87.845886 
	C102.219971,88.834908 101.365059,89.823929 100.009384,91.004799 
	C99.261299,91.356804 99.112534,91.582085 99.062325,91.872498 
	C99.062325,91.872498 99.045197,92.061806 98.768005,92.125023 
	C98.255867,92.334595 98.121666,92.545197 98.088203,92.820030 
	C98.088203,92.820030 98.064774,93.077187 97.769836,93.127701 
	C97.254402,93.303192 97.138939,93.492355 97.128525,93.745697 
	C97.128525,93.745697 97.050598,94.055275 96.749908,94.111954 
	C96.248627,94.272530 96.162109,94.436661 96.189659,94.661026 
	C96.189659,94.661026 96.029305,95.037453 95.713310,95.103867 
	C95.224754,95.257645 95.143188,95.398033 95.152611,95.591446 
	C94.950043,95.687233 94.747482,95.783028 94.036797,96.023361 
	C93.284569,96.303360 93.144928,96.509605 93.109764,96.786629 
	C93.109764,96.786629 93.041595,97.077278 92.754234,97.115364 
	C92.265350,97.248154 92.185844,97.404884 92.228363,97.623634 
	C92.228363,97.623634 92.040215,98.015205 91.721313,98.087738 
	C91.402420,98.160271 91.178375,98.561996 91.178375,98.561996 
	C90.941406,98.660233 90.704445,98.758469 89.964241,98.997177 
	C89.270119,99.228882 89.164391,99.379890 89.143814,99.590660 
	C88.570183,100.037323 87.996544,100.483986 86.947266,101.027313 
	C86.291428,101.205452 86.211990,101.344688 86.233322,101.541702 
	C85.973816,101.641060 85.714317,101.740410 84.949142,101.990326 
	C84.266930,102.220367 84.187263,102.356667 84.204468,102.549812 
	C83.948257,102.651939 83.692039,102.754074 82.838043,102.942108 
	C81.864159,103.240219 81.488060,103.452431 81.111961,103.664642 
	C80.930061,103.743065 80.748161,103.821480 80.079178,104.017982 
	C79.333359,104.259460 79.148003,104.453133 79.036034,104.717064 
	C78.832199,104.788742 78.628372,104.860413 77.870590,104.969894 
	C76.911316,105.230598 76.505989,105.453506 76.100662,105.676422 
	C75.908821,105.757370 75.716988,105.838318 74.963257,105.960556 
	C73.969788,106.226990 73.538223,106.452126 73.106651,106.677261 
	C72.904381,106.754807 72.702110,106.832352 71.881264,106.947281 
	C70.530014,107.228386 69.797340,107.472107 69.064659,107.715836 
	C68.876427,107.784264 68.688194,107.852699 67.769775,107.952850 
	C56.365719,107.996033 45.691845,108.007500 35.017967,108.018967 
	C34.841671,107.994965 34.665371,107.970963 34.107315,107.676315 
	C33.502708,107.186546 33.235947,107.059883 32.925270,107.025681 
	C32.925270,107.025681 32.437302,106.959953 32.011909,106.663086 
	C31.033379,106.259384 30.480240,106.152542 29.927101,106.045708 
	C29.927101,106.045708 29.998535,106.016876 29.879837,105.808777 
	C29.477512,105.410736 29.193884,105.220802 28.910255,105.030869 
	C27.809559,104.376595 26.708864,103.722321 25.169739,102.747673 
	C24.510113,102.199066 24.241571,102.067329 23.925688,102.032082 
	C23.562340,102.027588 23.285023,101.870865 22.930084,101.082947 
	C22.481262,100.418617 22.196093,100.233246 21.910923,100.047874 
	C21.910925,100.047874 21.982792,100.010246 21.902576,99.826370 
	C21.673868,99.359055 21.455769,99.147308 21.168062,99.007256 
	C13.956972,90.618362 13.675331,80.913231 16.353556,70.323341 
	C18.109209,69.638145 19.312145,69.380493 20.416323,69.532928 
	C20.135620,74.644463 19.953674,79.345924 19.780504,84.421631 
	C19.908674,85.534515 20.028067,86.273132 20.175688,87.345535 
	C21.036535,89.263351 21.869154,90.847382 22.814365,92.747375 
	C24.573362,95.121239 26.219763,97.179146 27.866165,99.237053 
	C28.209202,99.037308 28.552238,98.837563 28.895275,98.637810 
	C28.895275,94.762978 28.895275,90.888138 28.968105,86.559364 
	C28.990118,82.740082 28.939299,79.374741 28.960484,75.552887 
	C28.982784,71.408539 28.933081,67.720703 28.952700,63.577538 
	C28.992821,59.757904 28.963619,56.393593 29.241871,52.740955 
	C29.100281,43.972546 28.651239,35.492455 28.202198,27.012367 
	C28.149113,26.558331 28.096029,26.104292 28.313843,25.158386 
	C28.449505,24.113564 28.314270,23.560610 28.179033,23.007654 
	C28.133366,22.681404 27.971518,22.319647 28.058811,22.034033 
	C31.308609,11.401005 31.309048,11.234795 43.136314,11.044886 
	C55.740070,10.842509 68.350235,10.933282 80.956062,11.054766 
	C83.506660,11.079346 86.157936,11.493716 88.568619,12.305204 
	C91.246124,13.206515 93.162247,14.827837 93.083908,18.374496 
	C92.933670,25.175653 93.663879,25.496252 100.508003,27.190704 
	C102.223549,27.615435 103.506416,29.787785 105.002365,31.988249 
	C105.053795,35.946125 105.090988,39.072704 105.156731,42.649555 
	C105.129860,50.400383 105.074440,57.700939 104.613495,65.001488 
	C101.060295,66.270493 97.564384,67.028282 94.823891,68.895042 
	C81.364197,78.063492 72.213226,92.141495 58.528416,101.125237 
	C57.768684,101.623985 57.288631,103.112541 57.352028,104.097015 
	C57.392216,104.721024 58.835976,105.886246 59.387089,105.749336 
	C65.816849,104.152100 72.950478,104.402939 78.333008,99.003548 
	C79.109322,98.998802 79.552933,98.996666 80.403717,98.996277 
	C83.683838,99.155083 86.273666,98.943481 86.303535,94.859665 
	C88.738594,93.144096 90.874680,91.578148 93.307678,89.862846 
	C97.403580,85.462532 101.202568,81.211571 105.328064,76.823814 
	C106.117218,75.180496 106.579872,73.673965 107.386063,72.067719 
	C108.812149,69.646133 109.894691,67.324265 111.245087,64.685349 
	C111.145744,58.635540 110.778549,52.902794 110.763733,47.203014 
	C112.021523,47.492168 112.926949,47.748356 113.832367,48.004547 
	C114.219475,48.747799 114.606583,49.491055 115.079422,50.787651 
	C115.311699,51.631989 115.530663,51.850365 115.822052,51.996128 
	C116.209427,53.420456 116.596809,54.844784 116.662476,56.922436 
	C116.263359,60.063625 116.185951,62.551491 116.108536,65.039352 
	C116.061150,65.476418 116.013763,65.913475 115.604523,66.715164 
	C115.187759,67.730774 115.132835,68.381744 115.077919,69.032722 
	C115.039665,69.475487 115.001411,69.918251 114.704254,70.815414 
	C114.215034,71.489151 114.079697,71.756569 114.039352,72.072075 
	C114.039352,72.072075 114.014496,72.002617 113.806259,72.119843 
	C113.408554,72.520187 113.219078,72.803307 113.029602,73.086433 
M37.060093,28.777094 
	C37.226444,30.483198 37.392796,32.189301 37.310516,34.654339 
	C36.343952,44.514103 36.615391,44.821617 46.281982,44.820835 
	C47.108341,44.820766 47.934704,44.822575 48.761063,44.823616 
	C59.468460,44.837120 59.511387,44.790314 58.845314,33.179047 
	C58.794170,31.466797 58.743031,29.754545 58.857002,27.248127 
	C59.261002,23.335127 57.295940,21.874256 53.594322,21.976736 
	C49.968655,22.077112 46.321560,22.221354 42.713863,21.949015 
	C38.046509,21.596685 36.243946,23.460346 37.060093,28.777094 
M64.229218,74.658432 
	C61.753731,77.029442 59.278236,79.400452 56.607811,81.958160 
	C54.574276,80.064560 53.224678,78.056938 51.368404,77.312187 
	C49.828754,76.694466 47.692230,77.564461 45.820129,77.775375 
	C46.289413,79.169571 46.403549,80.876030 47.299534,81.895042 
	C49.370773,84.250679 51.681976,86.457832 54.185066,88.340752 
	C55.197083,89.102036 57.588539,89.573166 58.287357,88.960899 
	C63.488621,84.403824 68.422340,79.541389 73.213425,74.989998 
	C69.822723,68.722153 67.281914,71.396126 64.229218,74.658432 
M69.643692,52.478710 
	C59.884727,52.334290 50.125416,52.108952 40.367249,52.150951 
	C39.187386,52.156029 38.013733,53.605141 36.837200,54.384991 
	C37.064831,54.922676 37.292461,55.460365 37.520092,55.998051 
	C47.917999,55.998051 58.316654,56.043121 68.711716,55.871120 
	C69.258041,55.862076 69.773880,54.010956 69.643692,52.478710 
M69.006805,32.011810 
	C67.804878,32.783752 66.602951,33.555695 65.401016,34.327633 
	C66.654747,34.882217 67.896790,35.882790 69.164185,35.916016 
	C75.445099,36.080669 81.735481,36.086075 88.015541,35.905281 
	C89.220100,35.870609 90.393387,34.749870 91.581108,34.130180 
	C90.312508,33.424080 89.064636,32.155785 87.771767,32.108128 
	C81.825371,31.888927 75.866417,32.010437 69.006805,32.011810 
M45.572933,61.976700 
	C42.776661,62.160492 39.980389,62.344288 37.184113,62.528084 
	C37.236629,63.093361 37.289143,63.658642 37.341660,64.223923 
	C46.798264,64.223923 56.254868,64.223923 65.711472,64.223923 
	C65.745697,63.474953 65.779915,62.725979 65.814140,61.977009 
	C59.393906,61.977009 52.973675,61.977009 45.572933,61.976700 
M72.665756,26.993765 
	C76.664001,26.993765 80.662239,26.993765 84.660484,26.993765 
	C84.828011,26.325970 84.995544,25.658173 85.163071,24.990377 
	C83.857590,24.332872 82.592888,23.231945 81.238403,23.107401 
	C78.131294,22.821701 74.955772,22.772331 71.855644,23.090708 
	C69.663933,23.315794 67.550255,24.300722 65.401741,24.946444 
	C67.512459,25.628998 69.623169,26.311554 72.665756,26.993765 
M82.498032,41.643959 
	C77.594551,41.443470 72.691330,41.150261 67.787315,41.136314 
	C66.995667,41.134060 66.200485,42.374390 65.406937,43.040329 
	C66.238525,43.672707 67.047516,44.813000 67.905533,44.851162 
	C72.025223,45.034393 76.167412,45.063061 80.279121,44.797943 
	C81.172119,44.740368 81.972733,43.250122 82.498032,41.643959 
z"/>
<path fill="#F5F8FD" opacity="1.000000" stroke="none" 
	d="
M28.121986,27.474169 
	C28.651239,35.492455 29.100281,43.972546 29.009905,52.859085 
	C28.036583,53.780006 27.602676,54.294479 27.084747,54.798073 
	C27.000721,54.787201 26.948309,54.948345 26.948307,54.948345 
	C27.312798,45.944221 27.677286,36.940094 28.121986,27.474169 
z"/>
<path fill="#F5F8FD" opacity="1.000000" stroke="none" 
	d="
M35.210110,108.372360 
	C45.691845,108.007500 56.365719,107.996033 67.475578,108.013702 
	C58.634270,110.707672 49.308262,112.023125 39.778580,109.285271 
	C38.381531,108.883904 36.864025,108.901825 35.210110,108.372360 
z"/>
<path fill="#F5F8FD" opacity="1.000000" stroke="none" 
	d="
M20.515079,69.122841 
	C19.312145,69.380493 18.109209,69.638145 16.535828,69.949654 
	C16.289434,64.292397 19.920279,60.930149 24.529915,58.051315 
	C24.857319,58.098434 24.920547,58.200493 24.928989,58.478996 
	C24.932167,59.130390 24.926907,59.503273 24.665228,60.110954 
	C23.541290,62.536991 22.673769,64.728241 21.602982,67.085762 
	C21.104837,67.875641 20.809958,68.499237 20.515079,69.122841 
z"/>
<path fill="#E1EAFA" opacity="1.000000" stroke="none" 
	d="
M105.128189,42.199284 
	C105.090988,39.072704 105.053795,35.946125 105.033493,32.352455 
	C106.507721,35.095253 105.812279,39.397861 109.632011,41.678055 
	C108.917305,42.428726 108.403191,42.808151 107.618996,43.032951 
	C106.608673,42.651981 105.868431,42.425632 105.128189,42.199284 
z"/>
<path fill="#F5F8FD" opacity="1.000000" stroke="none" 
	d="
M107.889076,43.187576 
	C108.403191,42.808151 108.917305,42.428726 109.763199,42.008305 
	C111.337944,43.748405 112.580902,45.529503 113.828117,47.657570 
	C112.926949,47.748356 112.021523,47.492168 110.589203,47.022171 
	C109.503609,46.152489 108.944916,45.496616 108.287430,44.569557 
	C108.088783,43.928101 107.988930,43.557838 107.889076,43.187576 
z"/>
<path fill="#F5F8FD" opacity="1.000000" stroke="none" 
	d="
M116.479210,64.845123 
	C116.185951,62.551491 116.263359,60.063625 116.583679,57.298275 
	C116.834358,59.564156 116.842125,62.107525 116.479210,64.845123 
z"/>
<path fill="#F5F8FD" opacity="1.000000" stroke="none" 
	d="
M115.377563,68.925018 
	C115.132835,68.381744 115.187759,67.730774 115.525421,67.036163 
	C115.764511,67.600792 115.720856,68.209045 115.377563,68.925018 
z"/>
<path fill="#F5F8FD" opacity="1.000000" stroke="none" 
	d="
M69.378479,107.795334 
	C69.797340,107.472107 70.530014,107.228386 71.564270,107.018707 
	C71.141327,107.326782 70.416817,107.600807 69.378479,107.795334 
z"/>
<path fill="#F5F8FD" opacity="1.000000" stroke="none" 
	d="
M73.375656,106.754997 
	C73.538223,106.452126 73.969788,106.226990 74.656830,106.020950 
	C74.489754,106.304283 74.067207,106.568504 73.375656,106.754997 
z"/>
<path fill="#F5F8FD" opacity="1.000000" stroke="none" 
	d="
M30.030018,106.353027 
	C30.480240,106.152542 31.033379,106.259384 31.781761,106.575684 
	C31.362314,106.743546 30.747623,106.701942 30.030018,106.353027 
z"/>
<path fill="#F5F8FD" opacity="1.000000" stroke="none" 
	d="
M76.356842,105.746536 
	C76.505989,105.453506 76.911316,105.230598 77.555771,105.046860 
	C77.400940,105.329567 77.006981,105.573112 76.356842,105.746536 
z"/>
<path fill="#F5F8FD" opacity="1.000000" stroke="none" 
	d="
M81.350052,103.741516 
	C81.488060,103.452431 81.864159,103.240219 82.456429,103.101959 
	C82.311111,103.390068 81.949623,103.604225 81.350052,103.741516 
z"/>
<path fill="#F5F8FD" opacity="1.000000" stroke="none" 
	d="
M28.105698,23.334000 
	C28.314270,23.560610 28.449505,24.113564 28.391649,24.822104 
	C28.143160,24.538574 28.087761,24.099461 28.105698,23.334000 
z"/>
<path fill="#73A7F0" opacity="1.000000" stroke="none" 
	d="
M25.894119,56.903919 
	C26.039749,56.307243 26.185377,55.710567 26.639658,55.031120 
	C26.948309,54.948345 27.000721,54.787201 27.024094,55.124088 
	C26.709509,55.984241 26.371552,56.507507 25.998753,56.999031 
	C25.963913,56.967285 25.894121,56.903919 25.894119,56.903919 
z"/>
<path fill="#F5F8FD" opacity="1.000000" stroke="none" 
	d="
M106.338409,84.821655 
	C106.176826,84.356613 106.307388,83.851326 106.668121,83.212219 
	C106.809036,83.646072 106.719788,84.213737 106.338409,84.821655 
z"/>
<path fill="#F5F8FD" opacity="1.000000" stroke="none" 
	d="
M89.312485,99.654495 
	C89.164391,99.379890 89.270119,99.228882 89.601883,99.126579 
	C89.831673,99.392899 89.744461,99.593842 89.312485,99.654495 
z"/>
<path fill="#73A7F0" opacity="1.000000" stroke="none" 
	d="
M24.882872,58.044117 
	C25.074810,57.692444 25.241196,57.395088 25.650852,57.000824 
	C25.894121,56.903919 25.963913,56.967285 25.863195,57.235844 
	C25.481834,57.736435 25.201191,57.968464 24.920547,58.200493 
	C24.920547,58.200493 24.857319,58.098434 24.882872,58.044117 
z"/>
<path fill="#F5F8FD" opacity="1.000000" stroke="none" 
	d="
M33.006035,107.276375 
	C33.235947,107.059883 33.502708,107.186546 33.854900,107.589630 
	C33.685093,107.691406 33.385944,107.609238 33.006035,107.276375 
z"/>
<path fill="#F5F8FD" opacity="1.000000" stroke="none" 
	d="
M115.873428,51.728638 
	C115.530663,51.850365 115.311699,51.631989 115.101288,51.114655 
	C115.333206,51.079254 115.629005,51.270199 115.873428,51.728638 
z"/>
<path fill="#F5F8FD" opacity="1.000000" stroke="none" 
	d="
M114.304337,72.008484 
	C114.079697,71.756569 114.215034,71.489151 114.634567,71.141907 
	C114.738953,71.324303 114.654137,71.634598 114.304337,72.008484 
z"/>
<path fill="#F5F8FD" opacity="1.000000" stroke="none" 
	d="
M113.283432,73.004120 
	C113.219078,72.803307 113.408554,72.520187 113.838699,72.137390 
	C113.898666,72.332405 113.717964,72.627106 113.283432,73.004120 
z"/>
<path fill="#F5F8FD" opacity="1.000000" stroke="none" 
	d="
M28.993591,105.284416 
	C29.193884,105.220802 29.477512,105.410736 29.860565,105.842117 
	C29.665634,105.901703 29.371279,105.719833 28.993591,105.284416 
z"/>
<path fill="#F5F8FD" opacity="1.000000" stroke="none" 
	d="
M79.274796,104.788376 
	C79.148003,104.453133 79.333359,104.259460 79.789673,104.084854 
	C79.998253,104.405861 79.840355,104.681213 79.274796,104.788376 
z"/>
<path fill="#F5F8FD" opacity="1.000000" stroke="none" 
	d="
M110.268341,78.959091 
	C110.057343,78.720871 110.186897,78.465797 110.587799,78.135681 
	C110.686089,78.308960 110.602676,78.602821 110.268341,78.959091 
z"/>
<path fill="#F5F8FD" opacity="1.000000" stroke="none" 
	d="
M84.347809,102.635361 
	C84.187263,102.356667 84.266930,102.220367 84.566414,102.155373 
	C84.817551,102.423325 84.751488,102.607010 84.347809,102.635361 
z"/>
<path fill="#F5F8FD" opacity="1.000000" stroke="none" 
	d="
M23.999804,102.288673 
	C24.241571,102.067329 24.510113,102.199066 24.859150,102.616196 
	C24.682632,102.718483 24.378275,102.631874 23.999804,102.288673 
z"/>
<path fill="#F5F8FD" opacity="1.000000" stroke="none" 
	d="
M86.378128,101.622177 
	C86.211990,101.344688 86.291428,101.205452 86.596397,101.133812 
	C86.833534,101.393227 86.767456,101.579567 86.378128,101.622177 
z"/>
<path fill="#F5F8FD" opacity="1.000000" stroke="none" 
	d="
M21.994890,100.301926 
	C22.196093,100.233246 22.481262,100.418617 22.870449,100.842499 
	C22.675932,100.905991 22.377396,100.730988 21.994890,100.301926 
z"/>
<path fill="#F5F8FD" opacity="1.000000" stroke="none" 
	d="
M104.273682,86.805336 
	C104.095139,86.568649 104.206932,86.370026 104.580025,86.176300 
	C104.848282,86.429970 104.755844,86.650703 104.273682,86.805336 
z"/>
<path fill="#F5F8FD" opacity="1.000000" stroke="none" 
	d="
M21.111864,99.274529 
	C21.455769,99.147308 21.673868,99.359055 21.887867,99.864166 
	C21.654139,99.904503 21.354902,99.723152 21.111864,99.274529 
z"/>
<path fill="#F5F8FD" opacity="1.000000" stroke="none" 
	d="
M91.323471,98.644104 
	C91.178375,98.561996 91.402420,98.160271 91.522446,98.175125 
	C91.642479,98.189972 91.721626,98.511932 91.721626,98.511932 
	C91.721626,98.511932 91.468567,98.726204 91.323471,98.644104 
z"/>
<path fill="#F5F8FD" opacity="1.000000" stroke="none" 
	d="
M92.389519,97.658569 
	C92.185844,97.404884 92.265350,97.248154 92.606277,97.135048 
	C92.842903,97.364059 92.777901,97.556343 92.389519,97.658569 
z"/>
<path fill="#F5F8FD" opacity="1.000000" stroke="none" 
	d="
M93.319229,96.779526 
	C93.144928,96.509605 93.284569,96.303360 93.712730,96.112534 
	C93.915504,96.368469 93.792809,96.606895 93.319229,96.779526 
z"/>
<path fill="#F5F8FD" opacity="1.000000" stroke="none" 
	d="
M95.305771,95.662148 
	C95.143188,95.398033 95.224754,95.257645 95.523590,95.180405 
	C95.649864,95.190529 95.717110,95.518951 95.717110,95.518951 
	C95.717110,95.518951 95.458931,95.732849 95.305771,95.662148 
z"/>
<path fill="#F5F8FD" opacity="1.000000" stroke="none" 
	d="
M96.360298,94.691406 
	C96.162109,94.436661 96.248627,94.272530 96.593750,94.145004 
	C96.844749,94.382393 96.775635,94.582527 96.360298,94.691406 
z"/>
<path fill="#F5F8FD" opacity="1.000000" stroke="none" 
	d="
M97.321640,93.749924 
	C97.138939,93.492355 97.254402,93.303192 97.640877,93.133865 
	C97.871506,93.382439 97.774139,93.603973 97.321640,93.749924 
z"/>
<path fill="#F5F8FD" opacity="1.000000" stroke="none" 
	d="
M98.297676,92.802673 
	C98.121666,92.545197 98.255867,92.334595 98.673012,92.128098 
	C98.898964,92.384689 98.782944,92.623810 98.297676,92.802673 
z"/>
<path fill="#F5F8FD" opacity="1.000000" stroke="none" 
	d="
M99.285049,91.845100 
	C99.112534,91.582085 99.261299,91.356804 99.703011,91.127335 
	C99.929977,91.394615 99.800102,91.647842 99.285049,91.845100 
z"/>
<path fill="#F5F8FD" opacity="1.000000" stroke="none" 
	d="
M103.283157,87.819473 
	C103.106483,87.572235 103.236557,87.358589 103.646019,87.141724 
	C103.886902,87.397453 103.775063,87.635635 103.283157,87.819473 
z"/>
<path fill="#F5F8FD" opacity="1.000000" stroke="none" 
	d="
M105.311661,85.730461 
	C105.125679,85.494499 105.215981,85.321129 105.552704,85.169373 
	C105.821632,85.407417 105.751244,85.608101 105.311661,85.730461 
z"/>
<path fill="#F5F8FD" opacity="1.000000" stroke="none" 
	d="
M78.000305,99.006157 
	C72.950478,104.402939 65.816849,104.152100 59.387089,105.749336 
	C58.835976,105.886246 57.392216,104.721024 57.352028,104.097015 
	C57.288631,103.112541 57.768684,101.623985 58.528416,101.125237 
	C72.213226,92.141495 81.364197,78.063492 94.823891,68.895042 
	C97.564384,67.028282 101.060295,66.270493 104.678024,65.413551 
	C105.181908,67.212822 105.215736,68.600021 105.054482,70.115929 
	C104.631325,70.473595 104.502411,70.748947 104.090332,71.070457 
	C102.628632,71.480667 101.284164,71.611992 100.511711,72.345619 
	C94.161446,78.376648 87.712440,84.329063 81.757957,90.737007 
	C79.803078,92.840767 79.213974,96.213646 78.000305,99.006157 
z"/>
<path fill="#6ED780" opacity="1.000000" stroke="none" 
	d="
M64.486206,74.402931 
	C67.281914,71.396126 69.822723,68.722153 73.213425,74.989998 
	C68.422340,79.541389 63.488621,84.403824 58.287357,88.960899 
	C57.588539,89.573166 55.197083,89.102036 54.185066,88.340752 
	C51.681976,86.457832 49.370773,84.250679 47.299534,81.895042 
	C46.403549,80.876030 46.289413,79.169571 45.820129,77.775375 
	C47.692230,77.564461 49.828754,76.694466 51.368404,77.312187 
	C53.224678,78.056938 54.574276,80.064560 56.607811,81.958160 
	C59.278236,79.400452 61.753731,77.029442 64.486206,74.402931 
z"/>
<path fill="#77C4FD" opacity="1.000000" stroke="none" 
	d="
M58.666805,34.022408 
	C59.511387,44.790314 59.468460,44.837120 48.761063,44.823616 
	C47.934704,44.822575 47.108341,44.820766 46.281982,44.820835 
	C36.615391,44.821617 36.343952,44.514103 37.891296,34.311432 
	C40.409698,33.603867 42.347324,33.239208 44.521576,33.041718 
	C45.154953,33.854385 45.551704,34.499886 45.951672,35.253647 
	C45.954884,35.361908 45.952003,35.578503 45.574852,35.664379 
	C43.649052,36.923721 42.100407,38.097187 40.551762,39.270653 
	C40.829948,39.675930 41.108135,40.081211 41.386322,40.486492 
	C45.811550,40.486492 50.236782,40.486492 54.662014,40.486492 
	C54.905003,40.007904 55.147991,39.529312 55.390984,39.050724 
	C53.576920,37.909100 51.762856,36.767475 49.854958,35.465515 
	C49.557281,34.994514 49.353436,34.683849 49.425797,34.271240 
	C50.333549,33.725582 50.965099,33.281876 51.976448,32.990616 
	C54.459763,33.436172 56.563286,33.729290 58.666805,34.022408 
z"/>
<path fill="#D8E0EA" opacity="1.000000" stroke="none" 
	d="
M69.973801,52.748062 
	C69.773880,54.010956 69.258041,55.862076 68.711716,55.871120 
	C58.316654,56.043121 47.917999,55.998051 37.520092,55.998051 
	C37.292461,55.460365 37.064831,54.922676 36.837200,54.384991 
	C38.013733,53.605141 39.187386,52.156029 40.367249,52.150951 
	C50.125416,52.108952 59.884727,52.334290 69.973801,52.748062 
z"/>
<path fill="#EBF3FD" opacity="1.000000" stroke="none" 
	d="
M78.333008,99.003548 
	C79.213974,96.213646 79.803078,92.840767 81.757957,90.737007 
	C87.712440,84.329063 94.161446,78.376648 100.511711,72.345619 
	C101.284164,71.611992 102.628632,71.480667 104.156219,71.382126 
	C104.679611,72.774208 104.754776,73.854370 104.528458,74.959488 
	C103.824028,74.995834 103.421074,75.007225 102.672241,75.046509 
	C96.674187,80.501823 90.937881,85.846558 85.446861,91.432411 
	C84.450394,92.446075 84.458168,94.446930 83.806442,96.250519 
	C82.405876,97.337509 81.201218,98.166023 79.996552,98.994537 
	C79.552933,98.996666 79.109322,98.998802 78.333008,99.003548 
z"/>
<path fill="#8DD3FB" opacity="1.000000" stroke="none" 
	d="
M37.171848,28.019146 
	C36.243946,23.460346 38.046509,21.596685 42.713863,21.949015 
	C46.321560,22.221354 49.968655,22.077112 53.594322,21.976736 
	C57.295940,21.874256 59.261002,23.335127 58.357544,27.632195 
	C55.856628,28.004663 53.855167,27.993065 51.620148,27.736237 
	C48.512276,24.801960 46.046669,26.168819 43.192059,28.200941 
	C40.876648,28.094236 39.024250,28.056690 37.171848,28.019146 
z"/>
<path fill="#6CA1EF" opacity="1.000000" stroke="none" 
	d="
M20.416321,69.532928 
	C20.809958,68.499237 21.104837,67.875641 21.989149,67.107513 
	C24.050936,66.641281 25.523287,66.319572 26.997444,66.431099 
	C26.997305,69.909142 26.995363,72.953941 26.993355,76.372192 
	C26.989616,77.492500 26.985943,78.239365 26.638121,79.045715 
	C25.556927,80.122444 24.447197,81.044067 24.156773,82.175911 
	C23.449907,84.930733 21.924223,85.048820 19.771729,84.047379 
	C19.953674,79.345924 20.135620,74.644463 20.416321,69.532928 
z"/>
<path fill="#DAE1EB" opacity="1.000000" stroke="none" 
	d="
M69.459381,32.010765 
	C75.866417,32.010437 81.825371,31.888927 87.771767,32.108128 
	C89.064636,32.155785 90.312508,33.424080 91.581108,34.130180 
	C90.393387,34.749870 89.220100,35.870609 88.015541,35.905281 
	C81.735481,36.086075 75.445099,36.080669 69.164185,35.916016 
	C67.896790,35.882790 66.654747,34.882217 65.401016,34.327637 
	C66.602951,33.555695 67.804878,32.783752 69.459381,32.010765 
z"/>
<path fill="#6DB8F7" opacity="1.000000" stroke="none" 
	d="
M108.386223,44.840748 
	C108.944916,45.496616 109.503609,46.152489 110.236832,46.989204 
	C110.778549,52.902794 111.145744,58.635540 110.886856,64.624382 
	C106.559723,60.978092 105.543129,50.110287 108.386223,44.840748 
z"/>
<path fill="#D5DDE9" opacity="1.000000" stroke="none" 
	d="
M46.063187,61.976852 
	C52.973675,61.977009 59.393906,61.977009 65.814140,61.977009 
	C65.779915,62.725979 65.745697,63.474953 65.711472,64.223923 
	C56.254868,64.223923 46.798264,64.223923 37.341660,64.223923 
	C37.289143,63.658642 37.236629,63.093361 37.184113,62.528084 
	C39.980389,62.344288 42.776661,62.160492 46.063187,61.976852 
z"/>
<path fill="#5EA2ED" opacity="1.000000" stroke="none" 
	d="
M108.287430,44.569557 
	C105.543129,50.110287 106.559723,60.978092 110.619011,64.941437 
	C109.894691,67.324265 108.812149,69.646133 107.355507,71.747131 
	C106.404129,71.013252 105.826843,70.500237 105.249565,69.987221 
	C105.215736,68.600021 105.181908,67.212822 105.083557,65.413559 
	C105.074440,57.700939 105.129860,50.400383 105.156731,42.649555 
	C105.868431,42.425632 106.608673,42.651981 107.618996,43.032955 
	C107.988930,43.557838 108.088783,43.928101 108.287430,44.569557 
z"/>
<path fill="#DCE2EC" opacity="1.000000" stroke="none" 
	d="
M72.199821,26.993937 
	C69.623169,26.311554 67.512459,25.628998 65.401741,24.946442 
	C67.550255,24.300722 69.663933,23.315794 71.855644,23.090708 
	C74.955772,22.772331 78.131294,22.821701 81.238403,23.107401 
	C82.592888,23.231945 83.857590,24.332872 85.163071,24.990377 
	C84.995544,25.658173 84.828011,26.325970 84.660484,26.993765 
	C80.662239,26.993765 76.664001,26.993765 72.199821,26.993937 
z"/>
<path fill="#DFECFC" opacity="1.000000" stroke="none" 
	d="
M84.002342,95.992050 
	C84.458168,94.446930 84.450394,92.446075 85.446861,91.432411 
	C90.937881,85.846558 96.674187,80.501823 102.633163,75.388977 
	C100.573723,78.356331 98.002724,80.859436 95.914986,83.715759 
	C94.578011,85.544937 93.954254,87.895416 93.010765,90.012192 
	C90.874680,91.578148 88.738594,93.144096 86.043335,94.962173 
	C84.990227,95.473557 84.496284,95.732803 84.002342,95.992050 
z"/>
<path fill="#DAE1EC" opacity="1.000000" stroke="none" 
	d="
M82.656967,42.031849 
	C81.972733,43.250122 81.172119,44.740368 80.279121,44.797943 
	C76.167412,45.063061 72.025223,45.034393 67.905533,44.851162 
	C67.047516,44.813000 66.238525,43.672707 65.406937,43.040329 
	C66.200485,42.374390 66.995667,41.134060 67.787315,41.136314 
	C72.691330,41.150261 77.594551,41.443470 82.656967,42.031849 
z"/>
<path fill="#CDE2FB" opacity="1.000000" stroke="none" 
	d="
M93.307678,89.862846 
	C93.954254,87.895416 94.578011,85.544937 95.914986,83.715759 
	C98.002724,80.859436 100.573723,78.356331 102.979050,75.361092 
	C103.421074,75.007225 103.824028,74.995834 104.581833,75.295341 
	C104.958305,76.057693 104.979927,76.509148 105.001556,76.960602 
	C101.202568,81.211571 97.403580,85.462532 93.307678,89.862846 
z"/>
<path fill="#5F8CDD" opacity="1.000000" stroke="none" 
	d="
M26.982269,78.986229 
	C26.985943,78.239365 26.989616,77.492500 27.309357,76.373367 
	C28.046440,76.003860 28.467461,76.006630 28.888479,76.009399 
	C28.939299,79.374741 28.990118,82.740082 28.637653,86.612442 
	C26.390167,88.890114 24.545967,90.660759 22.701771,92.431412 
	C21.869154,90.847382 21.036535,89.263351 20.576229,87.340759 
	C27.155293,87.488220 26.591658,82.878090 26.982269,78.986229 
z"/>
<path fill="#5982D2" opacity="1.000000" stroke="none" 
	d="
M22.814363,92.747368 
	C24.545967,90.660759 26.390167,88.890114 28.564821,87.066391 
	C28.895275,90.888138 28.895275,94.762978 28.895275,98.637810 
	C28.552238,98.837563 28.209202,99.037308 27.866165,99.237053 
	C26.219763,97.179146 24.573362,95.121239 22.814363,92.747368 
z"/>
<path fill="#7CC9FC" opacity="1.000000" stroke="none" 
	d="
M51.853710,27.981468 
	C53.855167,27.993065 55.856628,28.004663 58.274986,28.029278 
	C58.743031,29.754545 58.794170,31.466797 58.756058,33.600727 
	C56.563286,33.729290 54.459763,33.436172 52.064861,32.595306 
	C51.800224,30.692190 51.826965,29.336828 51.853710,27.981468 
z"/>
<path fill="#83CBFB" opacity="1.000000" stroke="none" 
	d="
M37.115971,28.398121 
	C39.024250,28.056690 40.876648,28.094236 43.093121,28.519680 
	C43.733109,30.229902 44.009026,31.552227 44.284946,32.874554 
	C42.347324,33.239208 40.409698,33.603867 38.015614,33.931965 
	C37.392796,32.189301 37.226444,30.483198 37.115971,28.398121 
z"/>
<path fill="#6CA1EF" opacity="1.000000" stroke="none" 
	d="
M24.928989,58.478996 
	C25.201191,57.968464 25.481834,57.736435 25.898035,57.267590 
	C26.371552,56.507507 26.709509,55.984241 27.108120,55.134964 
	C27.602676,54.294479 28.036583,53.780006 28.702454,53.147408 
	C28.963619,56.393593 28.992821,59.757904 28.710997,63.685928 
	C27.933222,64.499359 27.466473,64.749069 26.995670,64.641586 
	C26.301626,62.814983 25.611637,61.345570 24.921646,59.876160 
	C24.926907,59.503273 24.932167,59.130390 24.928989,58.478996 
z"/>
<path fill="#6596E6" opacity="1.000000" stroke="none" 
	d="
M26.638121,79.045715 
	C26.591658,82.878090 27.155293,87.488220 20.548000,87.006973 
	C20.028067,86.273132 19.908674,85.534515 19.780504,84.421631 
	C21.924223,85.048820 23.449907,84.930733 24.156773,82.175911 
	C24.447197,81.044067 25.556927,80.122444 26.638121,79.045715 
z"/>
<path fill="#6596E6" opacity="1.000000" stroke="none" 
	d="
M26.999722,64.998779 
	C27.466473,64.749069 27.933222,64.499359 28.641674,64.141251 
	C28.933081,67.720703 28.982784,71.408539 28.960484,75.552887 
	C28.467461,76.006630 28.046440,76.003860 27.309422,75.999924 
	C26.995363,72.953941 26.997305,69.909142 26.998940,66.181335 
	C26.998629,65.498344 26.999722,64.998779 26.999722,64.998779 
z"/>
<path fill="#95BCEE" opacity="1.000000" stroke="none" 
	d="
M105.328064,76.823814 
	C104.979927,76.509148 104.958305,76.057693 104.883308,75.270386 
	C104.754776,73.854370 104.679611,72.774208 104.538559,71.382378 
	C104.502411,70.748947 104.631325,70.473595 105.054482,70.115929 
	C105.826843,70.500237 106.404129,71.013252 107.011971,71.846848 
	C106.579872,73.673965 106.117218,75.180496 105.328064,76.823814 
z"/>
<path fill="#F5F8FD" opacity="1.000000" stroke="none" 
	d="
M83.806442,96.250526 
	C84.496284,95.732803 84.990227,95.473557 85.744362,95.111801 
	C86.273666,98.943481 83.683838,99.155083 80.403717,98.996277 
	C81.201218,98.166023 82.405876,97.337509 83.806442,96.250526 
z"/>
<path fill="#73A7F0" opacity="1.000000" stroke="none" 
	d="
M26.995668,64.641586 
	C26.999722,64.998779 26.998629,65.498344 26.997133,65.748108 
	C25.523287,66.319572 24.050936,66.641281 22.192415,66.941238 
	C22.673769,64.728241 23.541290,62.536991 24.665230,60.110954 
	C25.611637,61.345570 26.301626,62.814983 26.995668,64.641586 
z"/>
<path fill="#F2F9FD" opacity="1.000000" stroke="none" 
	d="
M49.948792,35.625851 
	C51.762856,36.767475 53.576920,37.909100 55.390984,39.050724 
	C55.147991,39.529312 54.905003,40.007904 54.662014,40.486492 
	C50.236782,40.486492 45.811550,40.486492 41.386322,40.486492 
	C41.108135,40.081211 40.829948,39.675930 40.551762,39.270653 
	C42.100407,38.097187 43.649052,36.923721 45.963181,35.802032 
	C47.802036,35.777821 48.875416,35.701836 49.948792,35.625851 
z"/>
<path fill="#F9FCFE" opacity="1.000000" stroke="none" 
	d="
M44.521576,33.041718 
	C44.009026,31.552227 43.733109,30.229902 43.556129,28.588837 
	C46.046669,26.168819 48.512276,24.801960 51.620148,27.736238 
	C51.826965,29.336828 51.800224,30.692190 51.685066,32.442860 
	C50.965099,33.281876 50.333549,33.725582 49.089104,34.236198 
	C47.633625,34.583862 46.791042,34.864624 45.948460,35.145386 
	C45.551704,34.499886 45.154953,33.854385 44.521576,33.041718 
z"/>
<path fill="#83CBFB" opacity="1.000000" stroke="none" 
	d="
M45.951672,35.253647 
	C46.791042,34.864624 47.633625,34.583862 48.812897,34.338142 
	C49.353436,34.683849 49.557281,34.994514 49.854958,35.465515 
	C48.875416,35.701836 47.802036,35.777821 46.340332,35.716156 
	C45.952003,35.578503 45.954884,35.361908 45.951672,35.253647 
z"/>
</svg>